#!OML:ASF E:/inclinewalkrobotboard/Project1/Captureday1/Session1/subject1.ASF
:FULLY-SPECIFIED
:DEGREES
313
root 0 0 0 -3.334776903896117 -2.3253106509885053 0.5895880772475675
lowerback 8.935863819287626 -0.32002661573404667 -1.3336263766399605
upperback 2.165269279225677 -0.6787767422022077 0.8436657562824246
thorax -2.6163883595629955 -0.28340978923855475 1.8211895387313475
lowerneck -14.419295411283663 -1.9452854964978221 -2.3871750568204755
upperneck 16.482596736822753 -2.4399542312015083 1.8204112624569622
head 7.292771315124452 -1.1706373583555396 0.7102427389390861
rclavicle -2.7851632597079865E-15 -1.488161259327181E-15
rhumerus -35.00732132804614 -20.654156684991285 -86.43765435997216
rradius 16.744416373619856
rwrist 16.738709043003983
rhand -19.547274394559032 28.8205335400105
rfingers 7.12501999999999
rthumb 6.809286122572867 -1.2977087969776449
lclavicle -3.784171379602786E-15 -1.4343187320800994E-15
lhumerus -33.652930134147624 5.988960502786934 79.55947577232725
lradius 19.31630356766658
lwrist 1.0532196901885038
lhand -28.006826820483212 28.271490514244345
lfingers 7.125020000000006
lthumb -1.4459152355261136 58.38715193804604
rfemur -21.832397246734676 3.610971684595349 23.515044572466685
rtibia 44.90092213983304
rfoot -4.977468684074835 -7.84750518448473
rtoes 4.242187421813968
lfemur 3.7792464114412185 -7.316114307790088 -23.730160923514994
ltibia 24.597328128678342
lfoot -15.228357211872378 1.4679581914991435
ltoes -3.7368926248498795
314
root 0 0 0 -2.474263005195807 -1.0842928449776026 1.2702342651736225
lowerback 9.381575336252112 -0.806816512659778 -2.2046186143221798
upperback 2.0075952204733927 -1.4195093176160036 0.931753676785095
thorax -3.036506698375415 -0.6303876344774537 2.4674098410803222
lowerneck -14.599341056946477 -1.9891982546051856 -2.493741992995608
upperneck 14.65705403189256 -2.321720930602484 1.495907882791974
head 6.701178853202914 -1.195223661150716 0.6543397678929528
rclavicle -1.5569996549843071E-15 -4.544964175790059E-16
rhumerus -35.663588920043544 -22.58703543627177 -86.33222047553488
rradius 15.201858800814584
rwrist 17.218883234916085
rhand -19.45064828024728 28.086622454105893
rfingers 7.125019999999986
rthumb 6.903268951000842 -2.003345986256676
lclavicle -1.1933876793753376E-15 -3.423735371833147E-16
lhumerus -33.31833323336315 4.171213867824254 79.24826974497913
lradius 22.586795691623195
lwrist 3.3776540738771157
lhand -28.325340171070017 28.07020940003985
lfingers 7.125020000000008
lthumb -1.7653767535072369 58.19592432199096
rfemur -23.321974169598565 3.3983267481842834 22.29209038254063
rtibia 43.633261962803736
rfoot -4.780787990842378 -8.175667908980873
rtoes 3.3806912683574675
lfemur 6.291691788354984 -7.384033085321958 -24.453728306626623
ltibia 24.055138074803807
lfoot -16.170541209230926 1.4149243415818002
ltoes -4.436989369092139
315
root 0 0 0 -1.8439421554780497 -0.29010722369939623 1.4128452945779615
lowerback 9.53229046750832 -1.1238563263092738 -2.69510186591645
upperback 1.6013106703565396 -1.8731972551074645 1.1092364060964934
thorax -3.543376528473769 -0.8437853979473711 2.964345641608232
lowerneck -14.87298861718543 -2.0839333411331116 -2.416020590088168
upperneck 14.329318058560812 -2.3469724645494203 1.0884140154259052
head 6.654719767221893 -1.2535196152169505 0.5112356657387769
rclavicle 6.118210223169757E-16 -8.454783984495586E-16
rhumerus -35.28006127019894 -25.063155230983938 -85.19702497775235
rradius 14.89858850471218
rwrist 17.460258920634825
rhand -19.577744914645997 27.330263402156852
rfingers 7.125019999999984
rthumb 6.780154125673248 -2.760111170206457
lclavicle 2.0816332879855017E-15 -4.4358089923774647E-16
lhumerus -32.75179060241823 1.5392448336669822 79.10491978815656
lradius 27.15411325755951
lwrist 6.670722413303832
lhand -28.744735563187348 27.753995450142444
lfingers 7.125020000000008
lthumb -2.1828701042964127 57.89051812583257
rfemur -23.55129837670045 3.436256613194195 21.88645402031236
rtibia 42.23572688691553
rfoot -5.0663937941749575 -8.325788906699469
rtoes 2.8314614399481806
lfemur 7.464045820210475 -7.124160356071412 -24.735500934391784
ltibia 24.312967422390646
lfoot -16.328074848015948 1.0572340338237418
ltoes -4.99697682940965
316
root 0 0 0 -1.6985602668327087 -0.0433256292779296 1.414383217358068
lowerback 9.46270459353188 -1.2297725003271287 -2.8054064024439374
upperback 1.187459467224031 -2.011808105843744 1.1483121574635025
thorax -3.9506495959699732 -0.9139438773001665 3.0757247346578365
lowerneck -15.580851732189743 -2.1121465545460114 -2.350152661640908
upperneck 14.18746378428291 -2.3510010314917245 0.7540605064930752
head 6.740437435148814 -1.2729257583880709 0.38434309032432495
rclavicle 2.42853187214726E-15 -1.2468038312494198E-15
rhumerus -34.53752662956411 -27.296407707372335 -83.76074384729907
rradius 15.256617159144184
rwrist 17.270491480569344
rhand -19.776744188071454 26.65383876827447
rfingers 7.125019999999984
rthumb 6.586808291393639 -3.4535419898750135
lclavicle 3.891777047510229E-15 -7.886167305007361E-16
lhumerus -32.060092991765146 -1.1151437420074357 79.28159197514063
lradius 31.4258144016568
lwrist 9.807476996578021
lhand -29.126416325160644 27.53264501572855
lfingers 7.1250200000000055
lthumb -2.557334659562297 57.67212442626814
rfemur -23.271148098300415 3.672407123900274 22.19287905994969
rtibia 41.05060576229584
rfoot -5.774866993672031 -8.480436154979808
rtoes 2.467715850916219
lfemur 7.965880358578995 -6.85204920950116 -24.78269186391381
ltibia 24.787481844657655
lfoot -16.253401149870562 0.7306538275364702
ltoes -5.487982244173303
